<?xml version="1.0" encoding="UTF-8" standalone="no"?>
<svg
   class="svg-icon"
   style="width: 1em; height: 1em;vertical-align: middle;fill: currentColor;overflow: hidden;"
   viewBox="0 0 1024 1024"
   version="1.1"
   id="svg1"
   sodipodi:docname="lollipop-14.svg"
   inkscape:version="1.4.4 (dcaf3e7d9e, 2026-05-05)"
   xmlns:inkscape="http://www.inkscape.org/namespaces/inkscape"
   xmlns:sodipodi="http://sodipodi.sourceforge.net/DTD/sodipodi-0.dtd"
   xmlns="http://www.w3.org/2000/svg"
   xmlns:svg="http://www.w3.org/2000/svg">
  <defs
     id="defs1" />
  <sodipodi:namedview
     id="namedview1"
     pagecolor="#ffffff"
     bordercolor="#000000"
     borderopacity="0.25"
     inkscape:showpageshadow="2"
     inkscape:pageopacity="0.0"
     inkscape:pagecheckerboard="0"
     inkscape:deskcolor="#d1d1d1"
     inkscape:zoom="0.78125"
     inkscape:cx="512"
     inkscape:cy="512"
     inkscape:window-width="1920"
     inkscape:window-height="1011"
     inkscape:window-x="0"
     inkscape:window-y="0"
     inkscape:window-maximized="1"
     inkscape:current-layer="svg1" />
  <path
     id="rect1"
     style="overflow:hidden;fill:#1e293b"
     d="m 211.2,12.8 h 600.32 c 109.20448,0 197.12,87.91552 197.12,197.12 V 812.8 c 0,109.20448 -87.91552,197.12 -197.12,197.12 H 211.2 C 101.99552,1009.92 14.08,922.00448 14.08,812.8 V 209.92 C 14.08,100.71552 101.99552,12.8 211.2,12.8 Z" />
  <path
     d="M563.3 94.5c-189.4 0-345.5 144.8-363 329.6 11.7-48.8 34.6-94.7 68-132.3 69.3-79.3 166.9-126.8 267.4-130.2 86.8-2.9 168.2 28 227 87.2 100.5 100.1 99.3 270-2.5 378.4-40.1 42.6-101 68-166.5 69.3-63.4 1.7-122.7-20-161.9-58.8-37.5-37.1-59.2-89.3-59.7-143.1 0-52.6 19.6-101.8 55.9-138.1 30.5-30.5 73-48 116.8-48h0.4c44.2 0 85.9 17.9 117.2 49.6 52.2 53 50.9 138.9-2.1 192.4-43.8 43.8-115.2 43.8-159 0-17.9-17.9-27.5-41.7-27.5-67.2s9.6-49.2 27.5-67.2c9.6-9.6 25.5-9.6 35 0 9.6 9.6 9.6 25.4 0 35-8.8 8.8-13.4 20-13.4 32.1s4.6 23.4 13.4 32.1c24.6 24.6 64.7 24.6 89.3 0 33.4-33.4 34.2-89.7 1.7-122.7-22.1-22.1-51.3-34.6-82.2-34.6h-0.1c-30.5 0-60.5 12.1-81.8 33.4-26.7 26.7-41.3 63.4-41.3 103.1 0 40.5 16.7 80.1 45.1 107.7 30 29.6 75.9 46.3 126.4 45 52.6-1.2 100.5-20.8 131.4-53.8 83.5-89.3 85.1-228.2 3.3-309.6-49.6-49.7-117.2-75.1-190.7-73-87.2 2.9-171.9 43.8-232.4 113.1-59.7 68.4-80.1 162.3-55.1 257.8 7.5 29.2 22.9 66.4 48 103.5L104.8 878.6c-5.6 5.6-8.8 13.2-8.8 21.1 0 7.9 3.2 15.5 8.8 21.1 5.9 5.8 13.4 8.8 20.9 8.8 7.5 0 15-2.9 20.9-8.8l189-189c50.5 51.7 123.9 92.6 227.8 92.6 201.5 0 364.7-163.6 364.7-365.1C928 257.7 764.8 94.5 563.3 94.5z"
     fill="#F94A16"
     id="path1"
     style="fill:#3b82f6;fill-opacity:1" />
</svg>
